name C:\Users\antoi\Documents\MyRepositories\upper-imu-dc\Results\main_tracking\Case_86\kinematics.mot
datacolumns 43
datarows 5
range 1.30000000 1.38000000
endheader 
time	clav_prot	clav_elev	scapula_abduction	scapula_elevation	scapula_upward_rot	scapula_winging	plane_elv	shoulder_elv	axial_rot	TrapeziusScapula_M/activation	TrapeziusScapula_S/activation	TrapeziusScapula_I/activation	TrapeziusClavicle_S/activation	SerratusAnterior_I/activation	SerratusAnterior_M/activation	SerratusAnterior_S/activation	Rhomboideus_S/activation	Rhomboideus_I/activation	LevatorScapulae/activation	Coracobrachialis/activation	DeltoideusClavicle_A/activation	DeltoideusScapula_P/activation	DeltoideusScapula_M/activation	LatissimusDorsi_S/activation	LatissimusDorsi_M/activation	LatissimusDorsi_I/activation	PectoralisMajorClavicle_S/activation	PectoralisMajorThorax_I/activation	PectoralisMajorThorax_M/activation	TeresMajor/activation	Infraspinatus_I/activation	Infraspinatus_S/activation	PectoralisMinor/activation	TeresMinor/activation	Subscapularis_S/activation	Subscapularis_M/activation	Subscapularis_I/activation	Supraspinatus_P/activation	Supraspinatus_A/activation	TRIlong/activation	BIC_long/activation	BIC_brevis/activation	
          1.30000000	        -38.66689547	         -1.20234015	        -31.96298496	         -5.77765781	         25.36068960	         -2.05436244	        -25.22331671	         -0.99486449	         86.43631094	          0.01000000	          0.03237246	          0.01000000	          0.01282624	          0.04095006	          0.03504193	          0.01000000	          0.01000000	          0.01000000	          0.01000000	          0.01000000	          0.01000000	          0.01000000	          0.01450823	          0.01000000	          0.01000000	          0.01000000	          0.01000000	          0.01000000	          0.01000000	          0.01000000	          0.01000000	          0.01000000	          0.01000000	          0.01000000	          0.01000000	          0.01000000	          0.01000000	          0.01000000	          0.01509320	          0.01000000	          0.01425409	          0.01000000	
          1.32000000	        -38.83961732	         -1.18975999	        -32.00943550	         -5.84876860	         25.68648441	         -2.20932303	        -25.05064641	         -1.37107715	         87.20246861	          0.01000000	          0.03266917	          0.01000000	          0.01262826	          0.04005051	          0.03412956	          0.01000000	          0.01000000	          0.01000000	          0.01000000	          0.01000000	          0.01000000	          0.01000000	          0.01604959	          0.01000000	          0.01000000	          0.01000000	          0.01000000	          0.01000000	          0.01000000	          0.01000000	          0.01000000	          0.01000000	          0.01000000	          0.01000000	          0.01000002	          0.01000000	          0.01000014	          0.01000000	          0.01518802	          0.01000000	          0.01146351	          0.01000000	
          1.34000000	        -39.00080719	         -1.16726977	        -32.07547379	         -5.90066196	         25.96014925	         -2.35187871	        -24.80695152	         -1.71844972	         87.86062045	          0.01000000	          0.03281420	          0.01000000	          0.01240660	          0.03963986	          0.03325947	          0.01000000	          0.01000000	          0.01000000	          0.01000000	          0.01000000	          0.01000000	          0.01000000	          0.01732215	          0.01000000	          0.01000000	          0.01000000	          0.01000000	          0.01000000	          0.01000000	          0.01000000	          0.01000000	          0.01000000	          0.01000000	          0.01000000	          0.01000001	          0.01000000	          0.01043699	          0.01000000	          0.01399495	          0.01000000	          0.01064456	          0.01000000	
          1.36000000	        -39.14978310	         -1.13991719	        -32.15948843	         -5.93703244	         26.18084557	         -2.47954981	        -24.50527283	         -2.02955743	         88.41518224	          0.01000000	          0.03275707	          0.01000000	          0.01214415	          0.03972733	          0.03238151	          0.01000000	          0.01000000	          0.01000000	          0.01000000	          0.01000000	          0.01000000	          0.01000000	          0.01812805	          0.01000000	          0.01000000	          0.01000000	          0.01000000	          0.01000000	          0.01000000	          0.01000000	          0.01000000	          0.01000000	          0.01000000	          0.01000000	          0.01000001	          0.01000000	          0.01034308	          0.01000000	          0.01318159	          0.01000000	          0.01000313	          0.01000000	
          1.38000000	        -39.28652424	         -1.11307814	        -32.25916653	         -5.96227482	         26.35005481	         -2.59045130	        -24.16004249	         -2.29944184	         88.87183206	          0.01000000	          0.03255738	          0.01000000	          0.01184055	          0.04028677	          0.03150138	          0.01000000	          0.01000000	          0.01000000	          0.01000000	          0.01000000	          0.01000000	          0.01000000	          0.01866418	          0.01000000	          0.01000000	          0.01000000	          0.01000000	          0.01000000	          0.01000000	          0.01000000	          0.01000000	          0.01000000	          0.01000000	          0.01000000	          0.01000001	          0.01000000	          0.01029528	          0.01000000	          0.01216459	          0.01000000	          0.01000022	          0.01000000	
